<mxfile host="app.diagrams.net" modified="2021-05-12T01:47:49.746Z" agent="5.0 (Windows NT 10.0; Win64; x64) AppleWebKit/537.36 (KHTML, like Gecko) Chrome/90.0.4430.93 Safari/537.36" etag="OBJd5lkO67TH-fcv8Drs" version="14.6.12" type="github">
  <diagram id="0TISCvDm2FqteXrcD3BV" name="Page-1">
    <mxGraphModel dx="1209" dy="565" grid="1" gridSize="10" guides="1" tooltips="1" connect="1" arrows="1" fold="1" page="1" pageScale="1" pageWidth="827" pageHeight="1169" math="0" shadow="0">
      <root>
        <mxCell id="0" />
        <mxCell id="1" parent="0" />
        <mxCell id="ms4y8D_MaOTPgwR-Xzih-30" style="edgeStyle=orthogonalEdgeStyle;rounded=0;orthogonalLoop=1;jettySize=auto;html=1;exitX=0;exitY=1;exitDx=0;exitDy=0;entryX=0.25;entryY=0;entryDx=0;entryDy=0;" edge="1" parent="1" source="ms4y8D_MaOTPgwR-Xzih-2" target="ms4y8D_MaOTPgwR-Xzih-8">
          <mxGeometry relative="1" as="geometry" />
        </mxCell>
        <mxCell id="ms4y8D_MaOTPgwR-Xzih-2" value="&lt;span&gt;Child的构造函数&lt;/span&gt;" style="ellipse;whiteSpace=wrap;html=1;aspect=fixed;" vertex="1" parent="1">
          <mxGeometry x="263.38" y="73.75" width="91.25" height="91.25" as="geometry" />
        </mxCell>
        <mxCell id="ms4y8D_MaOTPgwR-Xzih-3" value="Child" style="text;html=1;strokeColor=none;fillColor=none;align=center;verticalAlign=middle;whiteSpace=wrap;rounded=0;" vertex="1" parent="1">
          <mxGeometry x="224" y="83.75" width="40" height="20" as="geometry" />
        </mxCell>
        <mxCell id="ms4y8D_MaOTPgwR-Xzih-4" value="prototype" style="text;html=1;strokeColor=none;fillColor=none;align=center;verticalAlign=middle;whiteSpace=wrap;rounded=0;" vertex="1" parent="1">
          <mxGeometry x="224" y="183.75" width="40" height="20" as="geometry" />
        </mxCell>
        <mxCell id="ms4y8D_MaOTPgwR-Xzih-5" style="edgeStyle=orthogonalEdgeStyle;rounded=0;orthogonalLoop=1;jettySize=auto;html=1;entryX=0;entryY=0.5;entryDx=0;entryDy=0;" edge="1" parent="1" source="ms4y8D_MaOTPgwR-Xzih-6" target="ms4y8D_MaOTPgwR-Xzih-8">
          <mxGeometry relative="1" as="geometry" />
        </mxCell>
        <mxCell id="ms4y8D_MaOTPgwR-Xzih-6" value="new Child()" style="rounded=0;whiteSpace=wrap;html=1;" vertex="1" parent="1">
          <mxGeometry x="34" y="223.75" width="130" height="90" as="geometry" />
        </mxCell>
        <mxCell id="ms4y8D_MaOTPgwR-Xzih-7" style="edgeStyle=orthogonalEdgeStyle;rounded=0;orthogonalLoop=1;jettySize=auto;html=1;entryX=0;entryY=0.5;entryDx=0;entryDy=0;" edge="1" parent="1" source="ms4y8D_MaOTPgwR-Xzih-8" target="ms4y8D_MaOTPgwR-Xzih-11">
          <mxGeometry relative="1" as="geometry" />
        </mxCell>
        <mxCell id="ms4y8D_MaOTPgwR-Xzih-32" style="edgeStyle=orthogonalEdgeStyle;rounded=0;orthogonalLoop=1;jettySize=auto;html=1;exitX=0.75;exitY=0;exitDx=0;exitDy=0;entryX=1;entryY=1;entryDx=0;entryDy=0;" edge="1" parent="1" source="ms4y8D_MaOTPgwR-Xzih-8" target="ms4y8D_MaOTPgwR-Xzih-2">
          <mxGeometry relative="1" as="geometry" />
        </mxCell>
        <mxCell id="ms4y8D_MaOTPgwR-Xzih-8" value="new M()" style="rounded=0;whiteSpace=wrap;html=1;" vertex="1" parent="1">
          <mxGeometry x="244" y="223.75" width="130" height="90" as="geometry" />
        </mxCell>
        <mxCell id="ms4y8D_MaOTPgwR-Xzih-9" style="edgeStyle=orthogonalEdgeStyle;rounded=0;orthogonalLoop=1;jettySize=auto;html=1;" edge="1" parent="1" source="ms4y8D_MaOTPgwR-Xzih-11">
          <mxGeometry relative="1" as="geometry">
            <mxPoint x="664" y="268.75" as="targetPoint" />
          </mxGeometry>
        </mxCell>
        <mxCell id="ms4y8D_MaOTPgwR-Xzih-10" style="edgeStyle=orthogonalEdgeStyle;rounded=0;orthogonalLoop=1;jettySize=auto;html=1;exitX=0.75;exitY=0;exitDx=0;exitDy=0;entryX=1;entryY=1;entryDx=0;entryDy=0;" edge="1" parent="1" source="ms4y8D_MaOTPgwR-Xzih-11" target="ms4y8D_MaOTPgwR-Xzih-16">
          <mxGeometry relative="1" as="geometry" />
        </mxCell>
        <mxCell id="ms4y8D_MaOTPgwR-Xzih-11" value="Parent的&lt;font color=&quot;#ff3333&quot;&gt;原型&lt;/font&gt;" style="rounded=0;whiteSpace=wrap;html=1;" vertex="1" parent="1">
          <mxGeometry x="454" y="223.75" width="130" height="90" as="geometry" />
        </mxCell>
        <mxCell id="ms4y8D_MaOTPgwR-Xzih-12" value="__proto__" style="text;html=1;strokeColor=none;fillColor=none;align=center;verticalAlign=middle;whiteSpace=wrap;rounded=0;" vertex="1" parent="1">
          <mxGeometry x="184" y="243.75" width="40" height="20" as="geometry" />
        </mxCell>
        <mxCell id="ms4y8D_MaOTPgwR-Xzih-13" value="__proto__" style="text;html=1;strokeColor=none;fillColor=none;align=center;verticalAlign=middle;whiteSpace=wrap;rounded=0;" vertex="1" parent="1">
          <mxGeometry x="394" y="243.75" width="40" height="20" as="geometry" />
        </mxCell>
        <mxCell id="ms4y8D_MaOTPgwR-Xzih-14" value="__proto__" style="text;html=1;strokeColor=none;fillColor=none;align=center;verticalAlign=middle;whiteSpace=wrap;rounded=0;" vertex="1" parent="1">
          <mxGeometry x="604" y="243.75" width="40" height="20" as="geometry" />
        </mxCell>
        <mxCell id="ms4y8D_MaOTPgwR-Xzih-15" style="edgeStyle=orthogonalEdgeStyle;rounded=0;orthogonalLoop=1;jettySize=auto;html=1;exitX=0;exitY=1;exitDx=0;exitDy=0;entryX=0.25;entryY=0;entryDx=0;entryDy=0;" edge="1" parent="1" source="ms4y8D_MaOTPgwR-Xzih-16" target="ms4y8D_MaOTPgwR-Xzih-11">
          <mxGeometry relative="1" as="geometry" />
        </mxCell>
        <mxCell id="ms4y8D_MaOTPgwR-Xzih-16" value="Parent的构造函数" style="ellipse;whiteSpace=wrap;html=1;aspect=fixed;" vertex="1" parent="1">
          <mxGeometry x="473.38" y="73.75" width="91.25" height="91.25" as="geometry" />
        </mxCell>
        <mxCell id="ms4y8D_MaOTPgwR-Xzih-17" value="Parent" style="text;html=1;strokeColor=none;fillColor=none;align=center;verticalAlign=middle;whiteSpace=wrap;rounded=0;" vertex="1" parent="1">
          <mxGeometry x="434" y="83.75" width="40" height="20" as="geometry" />
        </mxCell>
        <mxCell id="ms4y8D_MaOTPgwR-Xzih-18" value="constructor" style="text;html=1;strokeColor=none;fillColor=none;align=center;verticalAlign=middle;whiteSpace=wrap;rounded=0;" vertex="1" parent="1">
          <mxGeometry x="564" y="183.75" width="40" height="20" as="geometry" />
        </mxCell>
        <mxCell id="ms4y8D_MaOTPgwR-Xzih-19" value="prototype" style="text;html=1;strokeColor=none;fillColor=none;align=center;verticalAlign=middle;whiteSpace=wrap;rounded=0;" vertex="1" parent="1">
          <mxGeometry x="433.38" y="183.75" width="40" height="20" as="geometry" />
        </mxCell>
        <mxCell id="ms4y8D_MaOTPgwR-Xzih-20" style="edgeStyle=orthogonalEdgeStyle;rounded=0;orthogonalLoop=1;jettySize=auto;html=1;" edge="1" parent="1" source="ms4y8D_MaOTPgwR-Xzih-22">
          <mxGeometry relative="1" as="geometry">
            <mxPoint x="874.6199999999999" y="268.75" as="targetPoint" />
          </mxGeometry>
        </mxCell>
        <mxCell id="ms4y8D_MaOTPgwR-Xzih-21" style="edgeStyle=orthogonalEdgeStyle;rounded=0;orthogonalLoop=1;jettySize=auto;html=1;exitX=0.75;exitY=0;exitDx=0;exitDy=0;entryX=1;entryY=1;entryDx=0;entryDy=0;" edge="1" parent="1" source="ms4y8D_MaOTPgwR-Xzih-22" target="ms4y8D_MaOTPgwR-Xzih-25">
          <mxGeometry relative="1" as="geometry" />
        </mxCell>
        <mxCell id="ms4y8D_MaOTPgwR-Xzih-22" value="Object的&lt;font color=&quot;#ff3333&quot;&gt;原型&lt;/font&gt;" style="rounded=0;whiteSpace=wrap;html=1;" vertex="1" parent="1">
          <mxGeometry x="664.62" y="223.75" width="130" height="90" as="geometry" />
        </mxCell>
        <mxCell id="ms4y8D_MaOTPgwR-Xzih-23" value="__proto__" style="text;html=1;strokeColor=none;fillColor=none;align=center;verticalAlign=middle;whiteSpace=wrap;rounded=0;" vertex="1" parent="1">
          <mxGeometry x="814.62" y="243.75" width="40" height="20" as="geometry" />
        </mxCell>
        <mxCell id="ms4y8D_MaOTPgwR-Xzih-24" style="edgeStyle=orthogonalEdgeStyle;rounded=0;orthogonalLoop=1;jettySize=auto;html=1;exitX=0;exitY=1;exitDx=0;exitDy=0;entryX=0.25;entryY=0;entryDx=0;entryDy=0;" edge="1" parent="1" source="ms4y8D_MaOTPgwR-Xzih-25" target="ms4y8D_MaOTPgwR-Xzih-22">
          <mxGeometry relative="1" as="geometry" />
        </mxCell>
        <mxCell id="ms4y8D_MaOTPgwR-Xzih-25" value="Object的构造函数" style="ellipse;whiteSpace=wrap;html=1;aspect=fixed;" vertex="1" parent="1">
          <mxGeometry x="684" y="73.75" width="91.25" height="91.25" as="geometry" />
        </mxCell>
        <mxCell id="ms4y8D_MaOTPgwR-Xzih-26" value="Object" style="text;html=1;strokeColor=none;fillColor=none;align=center;verticalAlign=middle;whiteSpace=wrap;rounded=0;" vertex="1" parent="1">
          <mxGeometry x="644.62" y="83.75" width="40" height="20" as="geometry" />
        </mxCell>
        <mxCell id="ms4y8D_MaOTPgwR-Xzih-27" value="constructor" style="text;html=1;strokeColor=none;fillColor=none;align=center;verticalAlign=middle;whiteSpace=wrap;rounded=0;" vertex="1" parent="1">
          <mxGeometry x="774.62" y="183.75" width="40" height="20" as="geometry" />
        </mxCell>
        <mxCell id="ms4y8D_MaOTPgwR-Xzih-28" value="prototype" style="text;html=1;strokeColor=none;fillColor=none;align=center;verticalAlign=middle;whiteSpace=wrap;rounded=0;" vertex="1" parent="1">
          <mxGeometry x="644" y="183.75" width="40" height="20" as="geometry" />
        </mxCell>
        <mxCell id="ms4y8D_MaOTPgwR-Xzih-29" value="null" style="rounded=0;whiteSpace=wrap;html=1;" vertex="1" parent="1">
          <mxGeometry x="873" y="223.75" width="130" height="90" as="geometry" />
        </mxCell>
        <mxCell id="ms4y8D_MaOTPgwR-Xzih-33" value="constructor" style="text;html=1;strokeColor=none;fillColor=none;align=center;verticalAlign=middle;whiteSpace=wrap;rounded=0;" vertex="1" parent="1">
          <mxGeometry x="354.63" y="183.75" width="40" height="20" as="geometry" />
        </mxCell>
        <mxCell id="ms4y8D_MaOTPgwR-Xzih-36" style="edgeStyle=orthogonalEdgeStyle;rounded=0;orthogonalLoop=1;jettySize=auto;html=1;entryX=0.5;entryY=1;entryDx=0;entryDy=0;" edge="1" parent="1" source="ms4y8D_MaOTPgwR-Xzih-34" target="ms4y8D_MaOTPgwR-Xzih-11">
          <mxGeometry relative="1" as="geometry" />
        </mxCell>
        <mxCell id="ms4y8D_MaOTPgwR-Xzih-34" value="&lt;span&gt;M的构造函数&lt;/span&gt;" style="ellipse;whiteSpace=wrap;html=1;aspect=fixed;" vertex="1" parent="1">
          <mxGeometry x="473.37" y="370" width="91.25" height="91.25" as="geometry" />
        </mxCell>
        <mxCell id="ms4y8D_MaOTPgwR-Xzih-35" value="M" style="text;html=1;strokeColor=none;fillColor=none;align=center;verticalAlign=middle;whiteSpace=wrap;rounded=0;" vertex="1" parent="1">
          <mxGeometry x="440" y="380" width="40" height="20" as="geometry" />
        </mxCell>
        <mxCell id="ms4y8D_MaOTPgwR-Xzih-37" value="prototype" style="text;html=1;strokeColor=none;fillColor=none;align=center;verticalAlign=middle;whiteSpace=wrap;rounded=0;" vertex="1" parent="1">
          <mxGeometry x="473.37" y="340" width="40" height="20" as="geometry" />
        </mxCell>
      </root>
    </mxGraphModel>
  </diagram>
</mxfile>
